<svg preserveAspectRatio="none" width="100%" height="100%" overflow="visible" style="display: block;" viewBox="0 0 20 20" fill="none" xmlns="http://www.w3.org/2000/svg">
<g id="Frame">
<path id="Vector" d="M5.83333 12.5021L5.84201 12.4997" stroke="var(--stroke-0, #2C2C2C)" stroke-width="1.5"/>
<g id="Vector_2">
<path d="M18 9.99862C18 5.5811 14.4182 2 10 2C5.58172 2 2 5.5811 2 9.99862C2 14.4161 5.58172 17.9972 10 17.9972C10.6734 17.9972 11.6 18.0903 11.6 17.1974C11.6 16.7103 11.3466 16.3345 11.0949 15.9611C10.7266 15.4149 10.3618 14.874 10.8 13.9979C11.3334 12.9315 12.2222 12.9315 13.5852 12.9315C14.2667 12.9315 15.0667 12.9315 16 12.7981C17.6808 12.5581 18 11.5251 18 9.99862Z" stroke="var(--stroke-0, #2C2C2C)" stroke-width="1.2"/>
<path d="M8 8.39889C8.66274 8.39889 9.2 7.86173 9.2 7.1991C9.2 6.53647 8.66274 5.99931 8 5.99931C7.33726 5.99931 6.8 6.53647 6.8 7.1991C6.8 7.86173 7.33726 8.39889 8 8.39889Z" stroke="var(--stroke-0, #2C2C2C)" stroke-width="1.2"/>
<path d="M13.6 9.19875C14.2627 9.19875 14.8 8.66159 14.8 7.99896C14.8 7.33634 14.2627 6.79917 13.6 6.79917C12.9373 6.79917 12.4 7.33634 12.4 7.99896C12.4 8.66159 12.9373 9.19875 13.6 9.19875Z" stroke="var(--stroke-0, #2C2C2C)" stroke-width="1.2"/>
</g>
</g>
</svg>
